<svg xmlns="http://www.w3.org/2000/svg" xmlns:xlink="http://www.w3.org/1999/xlink" width="60" zoomAndPan="magnify" viewBox="0 0 45 44.999999" height="60" preserveAspectRatio="xMidYMid meet" version="1.0"><defs><clipPath id="b38c494050"><path d="M 3.074219 3.074219 L 42.074219 3.074219 L 42.074219 42.074219 L 3.074219 42.074219 Z M 3.074219 3.074219 " clip-rule="nonzero"/></clipPath></defs><g clip-path="url(#b38c494050)"><path fill="#FFFF" d="M 41.351562 18.964844 L 26.1875 18.964844 L 26.1875 3.796875 C 26.1875 3.398438 25.863281 3.074219 25.464844 3.074219 L 19.6875 3.074219 C 19.289062 3.074219 18.964844 3.398438 18.964844 3.796875 L 18.964844 18.964844 L 3.796875 18.964844 C 3.398438 18.964844 3.074219 19.289062 3.074219 19.6875 L 3.074219 25.464844 C 3.074219 25.863281 3.398438 26.1875 3.796875 26.1875 L 18.964844 26.1875 L 18.964844 41.351562 C 18.964844 41.753906 19.289062 42.074219 19.6875 42.074219 L 25.464844 42.074219 C 25.863281 42.074219 26.1875 41.753906 26.1875 41.351562 L 26.1875 26.1875 L 41.351562 26.1875 C 41.753906 26.1875 42.074219 25.863281 42.074219 25.464844 L 42.074219 19.6875 C 42.074219 19.289062 41.753906 18.964844 41.351562 18.964844 Z M 41.351562 18.964844 " fill-opacity="1" fill-rule="nonzero"/></g></svg>